<svg xmlns="http://www.w3.org/2000/svg" viewBox="0 0 400 250">
  <defs>
    <linearGradient id="bg" x1="0%" y1="0%" x2="100%" y2="100%">
      <stop offset="0%" style="stop-color:#0a1628"/>
      <stop offset="100%" style="stop-color:#1a2744"/>
    </linearGradient>
  </defs>
  <rect width="400" height="250" fill="url(#bg)"/>
  <text x="20" y="28" fill="rgba(255,255,255,0.4)" font-family="sans-serif" font-size="6" font-weight="600">SALES PIPELINE CRM</text>
  <rect x="20" y="40" width="360" height="195" rx="8" fill="#0d1527" stroke="rgba(255,255,255,0.08)" stroke-width="0.5"/>
  <rect x="20" y="40" width="360" height="16" rx="8" fill="rgba(255,255,255,0.03)"/>
  <circle cx="32" cy="48" r="3" fill="#F87171" opacity="0.6"/>
  <circle cx="42" cy="48" r="3" fill="#FB923C" opacity="0.6"/>
  <circle cx="52" cy="48" r="3" fill="#34D399" opacity="0.6"/>
  <!-- Pipeline stages -->
  <text x="30" y="68" fill="rgba(255,255,255,0.35)" font-family="sans-serif" font-size="5.5" font-weight="500">SALES PIPELINE</text>
  <!-- Lead column -->
  <rect x="30" y="76" width="65" height="150" rx="5" fill="rgba(99,200,255,0.04)"/>
  <text x="42" y="90" fill="#63C8FF" font-family="sans-serif" font-size="4.5" font-weight="600">LEADS (12)</text>
  <rect x="35" y="96" width="55" height="22" rx="4" fill="rgba(255,255,255,0.03)" stroke="rgba(99,200,255,0.1)" stroke-width="0.5"/>
  <text x="40" y="106" fill="rgba(255,255,255,0.4)" font-family="sans-serif" font-size="3.5">Ali Corp</text>
  <text x="40" y="114" fill="rgba(255,255,255,0.2)" font-family="sans-serif" font-size="3">PKR 450K • New</text>
  <rect x="35" y="122" width="55" height="22" rx="4" fill="rgba(255,255,255,0.03)" stroke="rgba(99,200,255,0.1)" stroke-width="0.5"/>
  <text x="40" y="132" fill="rgba(255,255,255,0.4)" font-family="sans-serif" font-size="3.5">Sara Tech</text>
  <text x="40" y="140" fill="rgba(255,255,255,0.2)" font-family="sans-serif" font-size="3">PKR 280K • 2d ago</text>
  <rect x="35" y="148" width="55" height="22" rx="4" fill="rgba(255,255,255,0.03)" stroke="rgba(99,200,255,0.1)" stroke-width="0.5"/>
  <text x="40" y="158" fill="rgba(255,255,255,0.4)" font-family="sans-serif" font-size="3.5">Nova Inc</text>
  <text x="40" y="166" fill="rgba(255,255,255,0.2)" font-family="sans-serif" font-size="3">PKR 890K • 5d ago</text>
  <!-- Qualified column -->
  <rect x="102" y="76" width="65" height="150" rx="5" fill="rgba(168,85,247,0.04)"/>
  <text x="114" y="90" fill="#A855F7" font-family="sans-serif" font-size="4.5" font-weight="600">QUALIFIED (8)</text>
  <rect x="107" y="96" width="55" height="22" rx="4" fill="rgba(168,85,247,0.06)" stroke="rgba(168,85,247,0.1)" stroke-width="0.5"/>
  <text x="112" y="106" fill="rgba(255,255,255,0.4)" font-family="sans-serif" font-size="3.5">RedStone</text>
  <text x="112" y="114" fill="rgba(255,255,255,0.2)" font-family="sans-serif" font-size="3">PKR 1.2M • Hot</text>
  <rect x="107" y="122" width="55" height="22" rx="4" fill="rgba(168,85,247,0.06)" stroke="rgba(168,85,247,0.1)" stroke-width="0.5"/>
  <text x="112" y="132" fill="rgba(255,255,255,0.4)" font-family="sans-serif" font-size="3.5">BlueSky</text>
  <text x="112" y="140" fill="rgba(255,255,255,0.2)" font-family="sans-serif" font-size="3">PKR 670K • Warm</text>
  <rect x="107" y="148" width="55" height="22" rx="4" fill="rgba(168,85,247,0.06)" stroke="rgba(168,85,247,0.1)" stroke-width="0.5"/>
  <text x="112" y="158" fill="rgba(255,255,255,0.4)" font-family="sans-serif" font-size="3.5">GreenLeaf</text>
  <text x="112" y="166" fill="rgba(255,255,255,0.2)" font-family="sans-serif" font-size="3">PKR 340K • New</text>
  <!-- Proposal column -->
  <rect x="174" y="76" width="65" height="150" rx="5" fill="rgba(251,146,60,0.04)"/>
  <text x="186" y="90" fill="#FB923C" font-family="sans-serif" font-size="4.5" font-weight="600">PROPOSAL (5)</text>
  <rect x="179" y="96" width="55" height="22" rx="4" fill="rgba(251,146,60,0.06)" stroke="rgba(251,146,60,0.1)" stroke-width="0.5"/>
  <text x="184" y="106" fill="rgba(255,255,255,0.4)" font-family="sans-serif" font-size="3.5">StarGroup</text>
  <text x="184" y="114" fill="rgba(255,255,255,0.2)" font-family="sans-serif" font-size="3">PKR 2.1M • Sent</text>
  <rect x="179" y="122" width="55" height="22" rx="4" fill="rgba(251,146,60,0.06)" stroke="rgba(251,146,60,0.1)" stroke-width="0.5"/>
  <text x="184" y="132" fill="rgba(255,255,255,0.4)" font-family="sans-serif" font-size="3.5">MedTech</text>
  <text x="184" y="140" fill="rgba(255,255,255,0.2)" font-family="sans-serif" font-size="3">PKR 890K • Review</text>
  <!-- Won column -->
  <rect x="246" y="76" width="65" height="150" rx="5" fill="rgba(52,211,153,0.04)"/>
  <text x="258" y="90" fill="#34D399" font-family="sans-serif" font-size="4.5" font-weight="600">WON (15)</text>
  <rect x="251" y="96" width="55" height="22" rx="4" fill="rgba(52,211,153,0.06)" stroke="rgba(52,211,153,0.1)" stroke-width="0.5"/>
  <text x="256" y="106" fill="rgba(255,255,255,0.4)" font-family="sans-serif" font-size="3.5">CloudNet</text>
  <text x="256" y="114" fill="#34D399" font-family="sans-serif" font-size="3">PKR 3.4M ✓</text>
  <rect x="251" y="122" width="55" height="22" rx="4" fill="rgba(52,211,153,0.06)" stroke="rgba(52,211,153,0.1)" stroke-width="0.5"/>
  <text x="256" y="132" fill="rgba(255,255,255,0.4)" font-family="sans-serif" font-size="3.5">DataFlow</text>
  <text x="256" y="140" fill="#34D399" font-family="sans-serif" font-size="3">PKR 1.8M ✓</text>
  <!-- Stats panel -->
  <rect x="320" y="76" width="55" height="150" rx="5" fill="rgba(255,255,255,0.02)" stroke="rgba(255,255,255,0.06)" stroke-width="0.5"/>
  <text x="328" y="90" fill="rgba(255,255,255,0.35)" font-family="sans-serif" font-size="4">TOTAL</text>
  <text x="328" y="108" fill="#63C8FF" font-family="sans-serif" font-size="12" font-weight="700">40</text>
  <text x="328" y="118" fill="rgba(255,255,255,0.2)" font-family="sans-serif" font-size="3">deals</text>
  <text x="328" y="138" fill="#34D399" font-family="sans-serif" font-size="6" font-weight="700">PKR 12M</text>
  <text x="328" y="150" fill="rgba(255,255,255,0.2)" font-family="sans-serif" font-size="3">pipeline</text>
  <text x="328" y="172" fill="#FB923C" font-family="sans-serif" font-size="12" font-weight="700">37%</text>
  <text x="328" y="182" fill="rgba(255,255,255,0.2)" font-family="sans-serif" font-size="3">win rate</text>
</svg>
