<svg xmlns="http://www.w3.org/2000/svg" viewBox="0 0 400 250">
  <defs>
    <linearGradient id="bg" x1="0%" y1="0%" x2="100%" y2="100%">
      <stop offset="0%" style="stop-color:#0c1a2e"/>
      <stop offset="100%" style="stop-color:#162040"/>
    </linearGradient>
  </defs>
  <rect width="400" height="250" fill="url(#bg)"/>
  <text x="20" y="28" fill="rgba(255,255,255,0.4)" font-family="sans-serif" font-size="6" font-weight="600">DIGITAL MARKETING REPORT</text>
  <rect x="20" y="40" width="360" height="195" rx="8" fill="#0d1527" stroke="rgba(255,255,255,0.08)" stroke-width="0.5"/>
  <rect x="20" y="40" width="360" height="16" rx="8" fill="rgba(255,255,255,0.03)"/>
  <circle cx="32" cy="48" r="3" fill="#F87171" opacity="0.6"/>
  <circle cx="42" cy="48" r="3" fill="#FB923C" opacity="0.6"/>
  <circle cx="52" cy="48" r="3" fill="#34D399" opacity="0.6"/>
  <text x="30" y="68" fill="rgba(255,255,255,0.35)" font-family="sans-serif" font-size="5.5" font-weight="500">MONTHLY PERFORMANCE SUMMARY</text>
  <rect x="30" y="76" width="80" height="35" rx="6" fill="rgba(52,211,153,0.06)"/>
  <text x="40" y="92" fill="#34D399" font-family="sans-serif" font-size="12" font-weight="700">PKR 8.4M</text>
  <text x="40" y="104" fill="rgba(255,255,255,0.25)" font-family="sans-serif" font-size="3.5">Total Revenue</text>
  <rect x="120" y="76" width="80" height="35" rx="6" fill="rgba(99,200,255,0.06)"/>
  <text x="130" y="92" fill="#63C8FF" font-family="sans-serif" font-size="12" font-weight="700">4.8x</text>
  <text x="130" y="104" fill="rgba(255,255,255,0.25)" font-family="sans-serif" font-size="3.5">Avg ROAS</text>
  <rect x="210" y="76" width="80" height="35" rx="6" fill="rgba(168,85,247,0.06)"/>
  <text x="220" y="92" fill="#A855F7" font-family="sans-serif" font-size="12" font-weight="700">156K</text>
  <text x="220" y="104" fill="rgba(255,255,255,0.25)" font-family="sans-serif" font-size="3.5">New Users</text>
  <rect x="300" y="76" width="70" height="35" rx="6" fill="rgba(251,146,60,0.06)"/>
  <text x="310" y="92" fill="#FB923C" font-family="sans-serif" font-size="12" font-weight="700">2,840</text>
  <text x="310" y="104" fill="rgba(255,255,255,0.25)" font-family="sans-serif" font-size="3.5">Conversions</text>
  <text x="30" y="126" fill="rgba(255,255,255,0.35)" font-family="sans-serif" font-size="5.5" font-weight="500">CHANNEL PERFORMANCE</text>
  <rect x="30" y="134" width="340" height="18" rx="4" fill="rgba(52,211,153,0.04)"/>
  <text x="40" y="147" fill="rgba(255,255,255,0.4)" font-family="sans-serif" font-size="4">Google Ads</text>
  <rect x="120" y="137" width="200" height="8" rx="4" fill="rgba(255,255,255,0.04)"/>
  <rect x="120" y="137" width="140" height="8" rx="4" fill="rgba(52,211,153,0.4)"/>
  <text x="330" y="147" fill="rgba(255,255,255,0.3)" font-family="sans-serif" font-size="3.5">PKR 3.8M (45%)</text>
  <rect x="30" y="156" width="340" height="18" rx="4" fill="rgba(99,200,255,0.04)"/>
  <text x="40" y="169" fill="rgba(255,255,255,0.4)" font-family="sans-serif" font-size="4">Facebook/IG Ads</text>
  <rect x="120" y="159" width="200" height="8" rx="4" fill="rgba(255,255,255,0.04)"/>
  <rect x="120" y="159" width="100" height="8" rx="4" fill="rgba(99,200,255,0.4)"/>
  <text x="330" y="169" fill="rgba(255,255,255,0.3)" font-family="sans-serif" font-size="3.5">PKR 2.4M (29%)</text>
  <rect x="30" y="178" width="340" height="18" rx="4" fill="rgba(168,85,247,0.04)"/>
  <text x="40" y="191" fill="rgba(255,255,255,0.4)" font-family="sans-serif" font-size="4">SEO/Organic</text>
  <rect x="120" y="181" width="200" height="8" rx="4" fill="rgba(255,255,255,0.04)"/>
  <rect x="120" y="181" width="60" height="8" rx="4" fill="rgba(168,85,247,0.4)"/>
  <text x="330" y="191" fill="rgba(255,255,255,0.3)" font-family="sans-serif" font-size="3.5">PKR 1.4M (17%)</text>
  <rect x="30" y="200" width="340" height="18" rx="4" fill="rgba(251,146,60,0.04)"/>
  <text x="40" y="213" fill="rgba(255,255,255,0.4)" font-family="sans-serif" font-size="4">Email Marketing</text>
  <rect x="120" y="203" width="200" height="8" rx="4" fill="rgba(255,255,255,0.04)"/>
  <rect x="120" y="203" width="45" height="8" rx="4" fill="rgba(251,146,60,0.4)"/>
  <text x="330" y="213" fill="rgba(255,255,255,0.3)" font-family="sans-serif" font-size="3.5">PKR 0.8M (9%)</text>
  <text x="30" y="234" fill="rgba(255,255,255,0.2)" font-family="sans-serif" font-size="4">Total ad spend: PKR 1.75M • Net profit: PKR 6.65M • Margin: 79%</text>
</svg>
